<svg xmlns="http://www.w3.org/2000/svg" viewBox="0 0 60.24 68.56"><defs><style>.cls-1{fill:#010101;}.cls-2{fill:#faa51a;}</style></defs><title>logo-icon-only</title><g id="Layer_2" data-name="Layer 2"><g id="Layer_1-2" data-name="Layer 1"><polygon class="cls-1" points="25.58 43.12 9.7 54.91 10.68 60.66 13.28 62.23 13.64 58.55 16.48 60.91 16.85 57.23 19.69 59.59 20.06 55.91 22.89 58.27 23.25 54.6 26.09 56.95 26.46 53.28 29.3 55.63 29.66 51.96 32.51 54.31 32.88 50.63 35.73 52.98 36.09 49.31 38.94 51.66 39.1 50.05 35.56 43.19 25.58 43.12"/><path class="cls-1" d="M34.84,41.56a8.05,8.05,0,0,1-.27-1,35.39,35.39,0,0,1-5.73-3.4l-.24.1a1.67,1.67,0,0,1-1.24-.12l-3-1.6a1.63,1.63,0,0,1-.53-.48l-7-.05a7.72,7.72,0,0,0-.41-.93A8.8,8.8,0,0,0,1,33.71l7.81.06,2.51,4.42L8.73,42.58.92,42.52a8.8,8.8,0,0,0,15.87-1.1Z"/><path class="cls-1" d="M0,18.43l3.35,3.22,6.5,1.85,16.3,8.7-1,1.94,3,1.6.49-.93c.76,1,3.28,2.59,5.79,3.89a7.8,7.8,0,0,1,.75-3.08L32.31,30a5,5,0,0,0-1-.21l.47-.88-.05-.09-2.92-1.56-1,1.94L15.68,22.76A2.37,2.37,0,0,1,14,23.6a1.89,1.89,0,0,1-1.69-1.06,2.92,2.92,0,0,1-.3-1.37v-.38l-.55-.29L6.29,16.14l-4.54-1Z"/><path class="cls-1" d="M13.63,21.13a1.57,1.57,0,0,0,.12.66c.28.54,1-.2,1.54-1.28,5.19-9.91,8.39-5,10.21-2.45.71,1,2.14.34,2.14.34l.49-.26,8,15.85a7.75,7.75,0,0,1,5.49-2.87l-8-15.82.92-.47s1.51-.91,1.32-2.12c-.21-1.36,4.11-3.63,5.21-4.45,0,0,0,0,0,0l.39.77h0a2,2,0,0,0,3.61-1.88L42,1.1A2,2,0,0,0,38.38,3l.52,1c-1.08.35-2.89.93-3.34.64-2-1.25-8.45,1.52-8.45,1.52C12.75,13.55,13.55,17.29,13.63,21.13Z"/><path class="cls-2" d="M39.37,33.42a6.25,6.25,0,0,0-2.68,8.41L48.46,65.18a6.24,6.24,0,0,0,11.09-5.73L47.78,36.1A6.25,6.25,0,0,0,39.37,33.42Zm16.56,28a2.24,2.24,0,1,1-3-1A2.25,2.25,0,0,1,55.93,61.45Z"/></g></g></svg>